<svg xmlns="http://www.w3.org/2000/svg" viewBox="0 0 400 400">
  <rect fill="#3178c6" height="400" rx="50" width="400"/>
  <path clip-rule="evenodd" d="m231 310v38c6 3 14 6 22 8s17 3 26 3c9 0 18-1 26-3s15-5 22-9 12-10 15-17 6-15 6-25c0-7-1-14-3-19s-5-10-9-15-9-8-14-12-11-7-17-10c-5-3-9-5-13-8s-6-5-9-7-4-5-5-7-2-5-2-8c0-3 1-5 2-7s3-4 6-6 6-3 9-4 8-1 12-1c3 0 7 0 10 1l10 2 9 3 7 4v-36c-5-2-11-3-19-4s-16-2-24-2c-9 0-18 1-26 3s-15 5-21 9-11 10-15 17-5 15-5 24c0 13 4 24 12 33s19 16 33 23c5 2 10 5 15 8s8 5 12 8 6 5 8 8 3 6 3 10c0 2-1 5-2 7s-3 4-5 6-6 3-10 4-8 1-13 1c-8 0-17-2-25-5s-15-8-21-14zm-91-95h50v-36h-139v36h50v150h39z" fill="#fff" fill-rule="evenodd"/>
</svg>
